<svg width="161" height="155" fill="none" xmlns="http://www.w3.org/2000/svg"><path d="M138.938 38.75h21.374V155H21.375V38.75H42.75v-9.688h10.688v9.688h74.812v-9.688h10.688v9.688zm10.687 9.688h-10.687v9.687h10.687v-9.688zm-21.375 0H53.437v9.687h74.813v-9.688zm-85.5 0H32.062v9.687H42.75v-9.688zm-10.688 96.874h117.563v-77.5H32.062v77.5zM21.376 29.062v-9.687H10.687v106.563H0V9.688h21.375V0h10.688v9.688h74.812V0h10.687v9.688h21.376v9.687h-21.376v9.688h-10.687v-9.688H32.062v9.688H21.376zm32.063 77.5v-9.687h10.687v9.687H53.437zm21.374 0v-9.687H85.5v9.687H74.812zm21.376 0v-9.687h10.687v9.687H96.187zm21.374 0v-9.687h10.688v9.687h-10.688zm-64.124 19.376v-9.688h10.687v9.688H53.437zm21.374 0v-9.688H85.5v9.688H74.812zm21.376 0v-9.688h10.687v9.688H96.187zm-21.376-38.75V77.5H85.5v9.688H74.812zm21.376 0V77.5h10.687v9.688H96.187zm21.374 0V77.5h10.688v9.688h-10.688z" fill="#D14575"/></svg>