<svg xmlns="http://www.w3.org/2000/svg" width="500" viewBox="0 0 375 375" height="500" version="1.0"><defs><clipPath id="a"><path d="M166 93.875h17V111h-17zm0 0"/></clipPath><clipPath id="b"><path d="M195 93.875h17V111h-17zm0 0"/></clipPath><clipPath id="c"><path d="M192 139h59v84.625h-59zm0 0"/></clipPath></defs><path fill="#29b6aa" d="M-37.5-37.5h450v450h-450z"/><path fill="#29b6aa" d="M-37.5-37.5h450v450h-450z"/><path fill="#2ad495" d="M235.316 121.91a5.718 5.718 0 00-1.152-8.008 5.714 5.714 0 00-8.008 1.153c-8.719 11.664-22.617 18.629-37.176 18.629-14.558 0-28.453-6.965-37.175-18.63a5.714 5.714 0 00-8.008-1.152 5.725 5.725 0 00-1.152 8.008c10.87 14.54 28.19 23.219 46.335 23.219s35.47-8.68 46.336-23.219"/><g clip-path="url(#a)"><path fill="#2ad495" d="M174.617 110.098c4.473 0 8.102-3.63 8.102-8.11 0-4.48-3.63-8.11-8.102-8.11a8.106 8.106 0 00-8.105 8.11c0 4.48 3.629 8.11 8.105 8.11"/></g><g clip-path="url(#b)"><path fill="#2ad495" d="M203.348 110.098c4.472 0 8.101-3.63 8.101-8.11 0-4.48-3.629-8.11-8.101-8.11a8.106 8.106 0 00-8.106 8.11c0 4.48 3.63 8.11 8.106 8.11"/></g><path fill="#ffc100" d="M131.344 138.195c-3.14-.386-5.98 1.864-6.356 5.004a5.722 5.722 0 005 6.363c14.457 1.727 27.43 10.29 34.711 22.907 7.278 12.617 8.2 28.144 2.465 41.535a5.726 5.726 0 005.258 7.98c2.219 0 4.328-1.3 5.258-3.472 7.148-16.692 6-36.043-3.075-51.766-9.07-15.726-25.242-26.398-43.261-28.55m9.058 55.546c-3.875 2.238-5.203 7.2-2.964 11.078a8.097 8.097 0 0011.066 2.97 8.111 8.111 0 002.969-11.08 8.102 8.102 0 00-11.07-2.968m-3.298-21.929a8.095 8.095 0 00-11.07-2.97 8.11 8.11 0 00-2.965 11.075c2.239 3.879 7.196 5.21 11.07 2.969a8.11 8.11 0 002.965-11.075"/><g clip-path="url(#c)"><path fill="#ff0472" d="M250.117 144.852a5.726 5.726 0 00-6.36-5.004c-18.019 2.152-34.187 12.824-43.26 28.55-9.071 15.723-10.224 35.075-3.075 51.766a5.72 5.72 0 005.262 3.473 5.728 5.728 0 005.254-7.98c-5.735-13.391-4.813-28.919 2.468-41.536 7.278-12.617 20.25-21.18 34.707-22.906a5.728 5.728 0 005.004-6.363"/></g><path fill="#ff0472" d="M249.066 170.496c-3.875-2.242-8.832-.91-11.07 2.965-2.238 3.879-.91 8.84 2.965 11.078 3.875 2.242 8.832.91 11.07-2.969a8.11 8.11 0 00-2.965-11.074M234.7 195.395a8.097 8.097 0 00-11.067 2.968 8.114 8.114 0 002.965 11.078 8.102 8.102 0 0011.07-2.968 8.114 8.114 0 00-2.969-11.078m-166.707 66.86c-.188-1.281-1.125-8.797-1.313-10.11-.265-2.265 1.657-2.39 1.391-3.593-.234-1.125-4.578-1.156-5.422-1.156-.797 0-2.953.094-3.312.953h-.032l-3.25 9.766-3.593-9.86c-.438-.765-2.657-.828-3.422-.828-.86 0-4.985.063-5.313 1.094-.328 1.156 1.86 1.39 1.594 3.61l-1.297 10.202c-.265 2.188-2.219 2.328-2.156 3.485.062 1.031 2.36 1.156 3.219 1.156.843 0 3.265 0 3.5-1.094.265-1.219-2.266-1.265-1.97-3.547.11-.906.642-5.28 1-8.047l3.876 10.625c.266.766 1 1.266 1.828 1.266h1.234c.86 0 1.594-.531 1.86-1.328l3.578-10.953 1.062 8.36c.266 2.202-1.78 2.437-1.421 3.624.296 1.031 4.64 1.125 5.484 1.125.86 0 5.203-.031 5.172-1.125-.063-1.219-2.016-1.328-2.297-3.625zm13.404 0v-10.11c0-2.265 1.937-2.39 1.859-3.593-.125-1.125-4.469-1.156-5.313-1.156-.859 0-5.203.125-5.375 1.156-.187 1.156 1.891 1.39 1.891 3.594v10.11c0 2.202-2.078 2.437-1.89 3.624.171 1.031 4.515 1.125 5.374 1.125.844 0 5.188-.031 5.313-1.125.078-1.219-1.86-1.328-1.86-3.625zm25.35-13.64c-.125-1.125-2.516-1.157-3.36-1.157-.86 0-3.219.125-3.406 1.157-.203 1.14 2.016 1.328 2.016 3.53v5.641c-2.22-2.703-5.235-6.218-7.563-9.109a3.31 3.31 0 00-2.594-1.281h-2.687c-.86 0-3.453.062-3.625 1.156-.188 1.156 2.031 1.39 2.031 3.594v10.11c0 2.202-2.219 2.437-2.031 3.593.172 1.031 2.531 1.156 3.39 1.156.891 0 3.282-.031 3.36-1.156.094-1.188-1.969-1.297-1.969-3.594v-7.39l9.063 10.89a3.38 3.38 0 002.562 1.219h.828c.235.031.469.031.625.031.844 0 1.969-.031 2.063-1.156.109-1.188-.688-1.297-.688-3.594v-10.11c0-2.296 2.078-2.327 1.985-3.53zm16.388 8.593c0 5.047-1.547 7.938-3.672 7.938-1.234 0-1.61-.594-1.61-2.89V252.13c0-2.312.376-2.906 1.61-2.906 2.125.062 3.672 2.922 3.672 7.953zm-5-9.812c-.375 0-1.5-.031-1.531-.031-.86 0-7.407.125-7.578 1.156-.188 1.156 1.89 1.39 1.89 3.61v10.124c0 2.203-2.078 2.438-1.89 3.625.171 1.031 8.734 1.125 9.109 1.125 7.125-.031 12.11-3.75 12.203-9.687v-.266c-.094-5.937-5.078-9.656-12.203-9.656zm0 0"/><path d="M134.355 252.13v10.125c0 2.203-2.078 2.438-1.89 3.625.171 1.031 4.515 1.125 5.375 1.125.843 0 5.187-.031 5.312-1.125.078-1.219-1.86-1.328-1.86-3.625v-3.547h.141c3.094 0 2.391 3.016 3.922 3.016 1.156 0 .985-1.39.985-2.313v-3.328c0-.922.171-2.312-.985-2.312-1.531 0-.828 3.047-3.922 3.047h-.14v-4.688c0-2.047.547-2.75 1.562-2.875h2.766c3.11 0 2.719 5.406 4.25 5.375 1.281 0 1.187-2.422 1.187-3.328 0-.953.032-2.953-1.03-3.406-1.25-.531-9.892-.531-9.985-.531-.86 0-7.407.093-7.578 1.125-.188 1.187 1.89 1.421 1.89 3.64zm40.551-3.578c-.093-1.125-2.484-1.156-3.328-1.156-.86 0-3.219.125-3.406 1.156-.203 1.188 2.016 1.422 2.016 3.656v7.703c0 4.016-1.954 5.47-4.11 5.47-2.062 0-4.062-1.25-4.062-4.813v-8.36c0-2.297 1.937-2.422 1.859-3.656-.125-1.125-4.469-1.156-5.312-1.156-.86 0-5.204.125-5.375 1.156-.188 1.188 1.89 1.422 1.89 3.656v7.532c0 5.609 4.453 7.765 9.266 7.765 5.312 0 8.562-2.094 8.562-8.203 0-3.781.032-6.469.032-7.094 0-2.328 2.093-2.453 1.968-3.656zm18.514 10.156c-1.531 0-1.125 6.438-4.25 6.438h-1.453c-1.063-.094-1.672-.766-1.672-2.89v-10.11c0-2.266 1.937-2.39 1.86-3.594-.126-1.125-4.47-1.156-5.313-1.156-.86 0-5.203.125-5.375 1.156-.188 1.156 1.89 1.39 1.89 3.594v10.11c0 2.202-2.078 2.437-1.89 3.624.203 1.094 7.312 1.125 8.672 1.125 2.328 0 6.562-.031 7.671-.5 1.063-.484 1.188-2.656 1.188-3.61 0-.905-.031-4.187-1.328-4.187zm0 0" fill="#2ad495"/><path d="M210.523 254.286c0 3.454-1.25 4.594-3.312 4.594-1.032 0-1.5-.594-1.5-1.625v-5.125c0-2.312.703-2.906 1.937-2.906 1.89.125 2.875 1.719 2.875 5.062zm-4.047 6.579c6.485-.188 11-2.22 11-6.579 0-4.546-4.89-6.89-11.797-6.921-1.39 0-8.625 0-8.796 1.125-.188 1.187 1.89 1.421 1.89 3.64v10.125c0 2.203-2.078 2.438-1.89 3.625.171 1.031 4.515 1.125 5.375 1.125.843 0 5.187-.031 5.312-1.125.078-1.219-1.86-1.328-1.86-3.625v-.89c.016-.438.5-.5.766-.5zm29.34-2.157c-1.531 0-1.125 6.438-4.25 6.438h-1.453c-1.063-.094-1.672-.766-1.672-2.89v-10.11c0-2.266 1.937-2.39 1.86-3.594-.126-1.125-4.47-1.156-5.313-1.156-.86 0-5.203.125-5.375 1.156-.188 1.156 1.89 1.39 1.89 3.594v10.11c0 2.202-2.078 2.437-1.89 3.624.203 1.094 7.312 1.125 8.672 1.125 2.328 0 6.562-.031 7.672-.5 1.062-.484 1.187-2.656 1.187-3.61 0-.905-.031-4.187-1.328-4.187zm9.566 1.203c.829-2.03 2.032-4.984 2.797-6.875l.36.829c.062.171.14.328.203.5l2.453 5.546zm13.688 2.157c-.266-.594-4.297-10.235-4.297-10.235-.953-2.312-1.312-4.64-5.062-4.937-.11 0-.282-.031-.5-.031-1.094 0-3 .218-3.297 1.218-.188.672.234 1.094.828 2l-4.813 11.922c-.922 2.313-2.953 2.547-2.953 3.781 0 .954 2 1.188 2.86 1.22.89 0 3.718 0 3.843-1.157.14-1.234-2.078-1.422-1.156-3.844l.094-.234h7.406l.11.297c.953 2.312-1.141 2.718-.844 3.75.28 1.156 4.547 1.187 5.687 1.187 1 0 4.672 0 4.969-1.187.344-1.438-1.89-1.36-2.875-3.75zm23.585-14.672c-.844 0-3.719 0-3.828.828-.125.89 2.156 1.062 1.171 2.781-.343.61-1.968 3.516-3.125 5.516l-3.39-5.547c-.953-1.656 1.156-1.984.86-2.719-.329-.86-4.97-.86-5.813-.86-.89 0-4.547 0-4.844.86-.328 1.063 1.89 1 2.86 2.719.265.469 2.827 4.812 4.64 7.906v3.375c0 2.203-2.11 2.438-1.89 3.625.171 1.031 4.484 1.125 5.343 1.125.844 0 5.219-.031 5.313-1.125.078-1.219-1.829-1.328-1.829-3.625v-3.25l4.454-8c.937-1.656 2.953-1.828 2.953-2.75.031-.672-2.016-.86-2.875-.86zm10.728 13.812c-2.187 0-3.953 1.422-3.953 3.188 0 1.75 1.766 3.172 3.953 3.172 2.172 0 3.954-1.422 3.954-3.172 0-1.766-1.782-3.188-3.954-3.188zm21.287-6.922c0 3.454-1.25 4.594-3.313 4.594-1.032 0-1.5-.594-1.5-1.625v-5.125c0-2.312.703-2.906 1.937-2.906 1.89.125 2.875 1.719 2.875 5.062zm-4.048 6.579c6.485-.188 11-2.22 11-6.579 0-4.546-4.89-6.89-11.797-6.921-1.39 0-8.625 0-8.796 1.125-.188 1.187 1.89 1.421 1.89 3.64v10.125c0 2.203-2.078 2.438-1.89 3.625.171 1.031 4.515 1.125 5.375 1.125.843 0 5.187-.031 5.312-1.125.078-1.219-1.86-1.328-1.86-3.625v-.89c.016-.438.5-.5.766-.5zm29.34-2.157c-1.531 0-1.125 6.438-4.25 6.438h-1.453c-1.063-.094-1.672-.766-1.672-2.89v-10.11c0-2.266 1.938-2.39 1.86-3.594-.126-1.125-4.47-1.156-5.313-1.156-.86 0-5.203.125-5.375 1.156-.188 1.156 1.89 1.39 1.89 3.594v10.11c0 2.202-2.078 2.437-1.89 3.624.203 1.094 7.312 1.125 8.672 1.125 2.328 0 6.562-.031 7.672-.5 1.062-.484 1.187-2.656 1.187-3.61 0-.905-.031-4.187-1.328-4.187zm0 0" fill="#ffc100"/></svg>