<svg width="161" height="155" fill="none" xmlns="http://www.w3.org/2000/svg"><path d="M55.492 25.833c0-6.851 2.598-13.422 7.224-18.267C67.34 2.722 73.614 0 80.155 0s12.814 2.722 17.44 7.566c4.625 4.845 7.223 11.416 7.223 18.267 0 6.852-2.598 13.423-7.224 18.267-4.625 4.845-10.898 7.567-17.439 7.567s-12.814-2.722-17.44-7.567c-4.625-4.844-7.223-11.415-7.223-18.267zM33.912 77.5c0-7.44 2.67-14.234 7.066-19.375h-22.48c-4.907 0-9.611 2.041-13.08 5.675C1.948 67.433 0 72.36 0 77.5v22.604c0 1.713.65 3.356 1.806 4.567 1.156 1.211 2.725 1.891 4.36 1.891h27.746V77.5zm92.486 0c.009-7.15-2.507-14.052-7.066-19.375h22.481c4.905 0 9.61 2.041 13.079 5.675 3.469 3.633 5.418 8.561 5.418 13.7v22.604c0 1.713-.65 3.356-1.806 4.567-1.156 1.211-2.725 1.891-4.36 1.891h-27.746V77.5zM0 125.938c0-2.57.974-5.034 2.709-6.851 1.734-1.816 4.087-2.837 6.54-2.837H151.06c2.453 0 4.806 1.021 6.54 2.837 1.735 1.817 2.709 4.281 2.709 6.851 0 7.707-2.923 15.1-8.127 20.55-5.203 5.45-12.26 8.512-19.619 8.512H27.746c-7.359 0-14.416-3.062-19.62-8.512C2.924 141.038 0 133.645 0 125.938zm6.166-96.876c0-5.995 2.273-11.744 6.32-15.983 4.047-4.24 9.537-6.62 15.26-6.62 5.723 0 11.212 2.38 15.26 6.62 4.047 4.239 6.32 9.988 6.32 15.983 0 5.995-2.273 11.745-6.32 15.984-4.048 4.24-9.537 6.62-15.26 6.62-5.723 0-11.212-2.38-15.26-6.62-4.047-4.239-6.32-9.989-6.32-15.983zm104.818 0c0-5.995 2.273-11.744 6.321-15.983 4.047-4.24 9.536-6.62 15.259-6.62 5.723 0 11.212 2.38 15.26 6.62 4.047 4.239 6.32 9.988 6.32 15.983 0 5.995-2.273 11.745-6.32 15.984-4.048 4.24-9.537 6.62-15.26 6.62-5.723 0-11.212-2.38-15.259-6.62-4.048-4.239-6.321-9.989-6.321-15.983zM43.16 77.5c0-5.139 1.95-10.067 5.418-13.7 3.469-3.634 8.174-5.675 13.08-5.675h36.994c4.906 0 9.611 2.041 13.08 5.675 3.469 3.633 5.418 8.561 5.418 13.7v29.062H43.16V77.5z" fill="#D14575"/></svg>